#!OML:ASF E:\motion texture\Top Level 1\Subject 1\Session 1\male.ASF
:FULLY-SPECIFIED
:DEGREES
712
root -28.2834 17.93 5.61136 168.247 -78.017 -163.788
lowerback 0.502882 0.264114 1.92766
upperback -1.51037 0.381062 1.8147
thorax -1.82953 0.164401 0.772363
lowerneck -5.36457 -12.3408 -14.553
upperneck 3.74318 -15.8652 8.11147
head 3.76009 -7.85038 3.72227
rclavicle 1.2862e-014 -1.23246e-014
rhumerus -30.851 -32.0097 -53.695
rradius 16.5257
rwrist 17.0785
rhand -13.6209 -27.2604
rfingers 7.12502
rthumb 12.4946 -56.8669
lclavicle 1.2862e-014 -1.23246e-014
lhumerus -54.3634 37.4848 41.9282
lradius 21.0563
lwrist -38.2797
lhand -11.1093 20.7221
lfingers 7.12502
lthumb 14.9152 50.1651
rfemur -14.631 -4.47262 21.2369
rtibia 59.0122
rfoot 5.82244 -7.51929
rtoes 5.11471
lfemur -16.9289 -2.84003 -16.971
ltibia 22.826
lfoot -6.53516 6.12833
ltoes -2.41285
713
root -28.4228 17.9396 5.60224 168.615 -78.2834 -164.264
lowerback 0.562894 0.245523 1.80646
upperback -1.48513 0.35677 1.78833
thorax -1.83782 0.154474 0.81343
lowerneck -5.56667 -12.1787 -14.453
upperneck 3.57284 -15.6014 7.89277
head 3.68539 -7.7195 3.66496
rclavicle 9.19379e-016 -3.97569e-016
rhumerus -32.1577 -33.6078 -51.3832
rradius 16.3939
rwrist 17.4009
rhand -13.4835 -27.529
rfingers 7.12502
rthumb 12.6271 -57.1273
lclavicle 9.19379e-016 -3.97569e-016
lhumerus -54.3694 37.0061 41.4487
lradius 21.4725
lwrist -37.3201
lhand -11.0042 20.8095
lfingers 7.12502
lthumb 15.0164 50.245
rfemur -15.4938 -4.83058 21.004
rtibia 59.7057
rfoot 5.73235 -8.22666
rtoes 5.30239
lfemur -16.2298 -2.97817 -17.3214
ltibia 22.6536
lfoot -6.85849 6.04315
ltoes -2.49162
714
root -28.5604 17.949 5.5927 168.972 -78.551 -164.716
lowerback 0.621527 0.224823 1.69152
upperback -1.46298 0.32955 1.76801
thorax -1.84845 0.142925 0.857329
lowerneck -5.76876 -12.015 -14.3523
upperneck 3.40511 -15.3376 7.67298
head 3.61218 -7.58874 3.60681
rclavicle -2.91468e-014 -3.20043e-014
rhumerus -33.4653 -35.0306 -49.0723
rradius 16.3413
rwrist 17.5771
rhand -13.3413 -27.7982
rfingers 7.12502
rthumb 12.7641 -57.388
lclavicle -2.91468e-014 -3.20043e-014
lhumerus -54.2876 36.4517 41.0694
lradius 21.9432
lwrist -36.2261
lhand -10.911 20.9027
lfingers 7.12502
lthumb 15.1062 50.3315
rfemur -16.3596 -5.18014 20.7916
rtibia 60.2902
rfoot 5.568 -8.93874
rtoes 5.50951
lfemur -15.5321 -3.11452 -17.6547
ltibia 22.4535
lfoot -7.17803 5.95856
ltoes -2.59939
715
root -28.696 17.9583 5.58273 169.32 -78.8199 -165.148
lowerback 0.679346 0.202292 1.58137
upperback -1.44305 0.299784 1.75334
thorax -1.86081 0.129989 0.904439
lowerneck -5.97392 -11.8506 -14.2497
upperneck 3.24155 -15.0743 7.45172
head 3.54137 -7.45835 3.54725
rclavicle 6.93262e-015 -6.75868e-015
rhumerus -34.7538 -36.2882 -46.7802
rradius 16.3601
rwrist 17.6079
rhand -13.2006 -28.0602
rfingers 7.12502
rthumb 12.8999 -57.6415
lclavicle 6.93262e-015 -6.75868e-015
lhumerus -54.1316 35.8392 40.7653
lradius 22.4632
lwrist -35.0182
lhand -10.8288 21.0053
lfingers 7.12502
lthumb 15.1854 50.428
rfemur -17.2235 -5.52026 20.5979
rtibia 60.7597
rfoot 5.33415 -9.65306
rtoes 5.74025
lfemur -14.8373 -3.24912 -17.9719
ltibia 22.2288
lfoot -7.49314 5.87399
ltoes -2.73388
716
root -28.8296 17.9673 5.57231 169.674 -79.0892 -165.577
lowerback 0.735933 0.178316 1.47327
upperback -1.42588 0.267961 1.74313
thorax -1.87523 0.11596 0.955093
lowerneck -6.18041 -11.6851 -14.1447
upperneck 3.08257 -14.8111 7.22826
head 3.47269 -7.32827 3.48613
rclavicle -5.75233e-015 2.98177e-015
rhumerus -36.0032 -37.3733 -44.5342
rradius 16.4504
rwrist 17.4749
rhand -13.0572 -28.3253
rfingers 7.12502
rthumb 13.0381 -57.8978
lclavicle -5.75233e-015 2.98177e-015
lhumerus -53.9153 35.1854 40.5087
lradius 23.0246
lwrist -33.7163
lhand -10.765 21.1169
lfingers 7.12502
lthumb 15.2468 50.535
rfemur -18.0828 -5.8483 20.4191
rtibia 61.1098
rfoot 5.03335 -10.3671
rtoes 5.98894
lfemur -14.1476 -3.38166 -18.2763
ltibia 21.9815
lfoot -7.80031 5.79072
ltoes -2.8942
717
root -28.9614 17.9761 5.56143 170.033 -79.3589 -165.998
lowerback 0.791099 0.152677 1.36703
upperback -1.41146 0.233797 1.73763
thorax -1.89159 0.100707 1.00966
lowerneck -6.38718 -11.518 -14.0388
upperneck 2.92836 -14.5478 7.00459
head 3.40627 -7.19825 3.42435
rclavicle 9.31803e-017 -1.17283e-014
rhumerus -37.1976 -38.3054 -42.3456
rradius 16.6033
rwrist 17.1896
rhand -12.9199 -28.5735
rfingers 7.12502
rthumb 13.1704 -58.1375
lclavicle 9.31803e-017 -1.17283e-014
lhumerus -53.6504 34.5024 40.2802
lradius 23.6243
lwrist -32.3339
lhand -10.711 21.2406
lfingers 7.12502
lthumb 15.2989 50.6547
rfemur -18.9339 -6.16298 20.2547
rtibia 61.337
rfoot 4.66952 -11.0783
rtoes 6.256
lfemur -13.4649 -3.51215 -18.5674
ltibia 21.7149
lfoot -8.09294 5.70847
ltoes -3.05256
